
      <svg data-logo="logo" xmlns="http://www.w3.org/2000/svg" viewBox="0 0 173 43">
        <g id="logogram" transform="translate(0, 1) rotate(0)"><path fill-rule="evenodd" clip-rule="evenodd" d="M20.1719 5.45685L22.8086 0.889954L30.285 5.20648L27.6483 9.77338C27.186 10.5742 27.8792 11.5476 28.7872 11.3725L33.8389 10.3984L35.4735 18.8753L30.4218 19.8494C22.2497 21.4253 16.0106 12.6645 20.1719 5.45685Z" fill="#3A724F"/><path fill-rule="evenodd" clip-rule="evenodd" d="M15.6034 36.3231L12.9667 40.89L5.49021 36.5735L8.12691 32.0066C8.58928 31.2057 7.89604 30.2323 6.98803 30.4074L1.93636 31.3815L0.301758 22.9046L5.35343 21.9305C13.5255 20.3547 19.7647 29.1155 15.6034 36.3231Z" fill="#DC8E43"/><path fill-rule="evenodd" clip-rule="evenodd" d="M15.8321 5.45685L13.1954 0.889954L5.71891 5.20648L8.35561 9.77338C8.81797 10.5742 8.12474 11.5476 7.21673 11.3725L2.16505 10.3984L0.530457 18.8753L5.58213 19.8494C13.7542 21.4253 19.9934 12.6645 15.8321 5.45685Z" fill="#14424C"/><path fill-rule="evenodd" clip-rule="evenodd" d="M19.9514 36.3231L22.5881 40.89L30.0645 36.5735L27.4278 32.0066C26.9654 31.2057 27.6587 30.2323 28.5667 30.4074L33.6184 31.3815L35.253 22.9046L30.2013 21.9305C22.0292 20.3547 15.79 29.1155 19.9514 36.3231Z" fill="#C85D1B"/></g>
        <g id="logotype" transform="translate(42, 7)"><path fill="#d74e14" d="M16.50 29.25L16.50 29.25Q13.28 29.25 11.57 27.48Q9.85 25.71 9.85 22.35L9.85 22.35L9.85 14.26L6.74 14.26L6.74 9.47L19.65 9.47L19.65 14.26L15.77 14.26L15.77 22.42Q15.77 23.26 16.31 23.73Q16.85 24.20 17.62 24.20L17.62 24.20Q17.97 24.20 18.27 24.12Q18.57 24.03 18.84 23.86L18.84 23.86L20.32 28.20Q19.48 28.65 18.55 28.95Q17.62 29.25 16.50 29.25ZM13.56 9.47L8.28 11.04L8.28 9.47Q9.04 9.47 9.54 8.98Q10.03 8.49 10.03 7.72L10.03 7.72L10.03 4.71L15.77 4.71L15.77 6.81Q15.77 7.30 15.52 7.88Q15.28 8.45 14.77 8.89Q14.26 9.33 13.56 9.47L13.56 9.47ZM28.33 29L22.41 29L22.41 9.47L28.33 9.47L28.33 29ZM28.33 20.60L27.42 20.60L28.33 14.19Q28.96 11.92 30.53 10.61Q32.11 9.29 34.56 9.29L34.56 9.29L34.56 15.45Q34.17 15.38 33.83 15.35Q33.47 15.31 33.13 15.31L33.13 15.31Q31.83 15.31 30.74 15.93Q29.66 16.54 28.99 17.71Q28.33 18.88 28.33 20.60L28.33 20.60ZM41.95 29L36.06 29L36.06 9.47L41.95 9.47L41.95 29ZM39.04 7.40L39.04 7.40Q37.33 7.40 36.24 6.42Q35.16 5.44 35.16 3.97L35.16 3.97Q35.16 2.47 36.24 1.47Q37.33 0.47 39.04 0.47L39.04 0.47Q40.72 0.47 41.80 1.47Q42.89 2.47 42.89 3.97L42.89 3.97Q42.89 5.44 41.80 6.42Q40.72 7.40 39.04 7.40ZM43.13 9.47L49.44 9.47L53.78 23.50L58.05 9.47L64.31 9.47L57.38 29L50.10 29L43.13 9.47ZM72.89 29.25L72.89 29.25Q70.33 29.25 68.42 27.91Q66.52 26.59 65.48 24.33Q64.45 22.07 64.45 19.23L64.45 19.23Q64.45 16.43 65.48 14.16Q66.52 11.88 68.42 10.55Q70.33 9.22 72.89 9.22L72.89 9.22Q75.13 9.22 76.79 10.43Q78.45 11.64 79.12 13.81L79.12 13.81L79.12 9.47L85.03 9.47L85.03 29L82.13 29Q80.73 29 79.92 28.21Q79.12 27.43 79.12 26.02L79.12 26.02L79.12 24.70Q78.45 26.83 76.79 28.04Q75.13 29.25 72.89 29.25ZM74.81 24.06L74.81 24.06Q75.97 24.06 76.95 23.50Q77.93 22.95 78.52 21.86Q79.12 20.77 79.12 19.23L79.12 19.23Q79.12 17.73 78.52 16.64Q77.93 15.56 76.95 14.96Q75.97 14.37 74.81 14.37L74.81 14.37Q73.62 14.37 72.64 14.96Q71.66 15.56 71.08 16.64Q70.51 17.73 70.51 19.23L70.51 19.23Q70.51 20.77 71.08 21.86Q71.66 22.95 72.66 23.50Q73.66 24.06 74.81 24.06ZM94.10 29L88.18 29L88.18 9.47L94.10 9.47L94.10 13.63Q94.52 12.27 95.46 11.29Q96.41 10.31 97.65 9.77Q98.89 9.22 100.22 9.22L100.22 9.22Q102.46 9.22 104.11 10.24Q105.75 11.25 106.66 13.11Q107.57 14.96 107.57 17.52L107.57 17.52L107.57 29L101.66 29L101.66 18.46Q101.66 16.47 100.64 15.31Q99.63 14.16 97.91 14.16L97.91 14.16Q96.76 14.16 95.90 14.77Q95.04 15.38 94.57 16.43Q94.10 17.48 94.10 18.81L94.10 18.81L94.10 29ZM117.79 29.25L117.79 29.25Q115.24 29.25 113.33 27.91Q111.42 26.59 110.39 24.33Q109.36 22.07 109.36 19.23L109.36 19.23Q109.36 16.43 110.39 14.16Q111.42 11.88 113.33 10.55Q115.24 9.22 117.79 9.22L117.79 9.22Q120.03 9.22 121.69 10.43Q123.36 11.64 124.02 13.81L124.02 13.81L124.02 9.47L129.94 9.47L129.94 29L127.03 29Q125.63 29 124.83 28.21Q124.02 27.43 124.02 26.02L124.02 26.02L124.02 24.70Q123.36 26.83 121.69 28.04Q120.03 29.25 117.79 29.25ZM119.72 24.06L119.72 24.06Q120.87 24.06 121.85 23.50Q122.83 22.95 123.43 21.86Q124.02 20.77 124.02 19.23L124.02 19.23Q124.02 17.73 123.43 16.64Q122.83 15.56 121.85 14.96Q120.87 14.37 119.72 14.37L119.72 14.37Q118.53 14.37 117.55 14.96Q116.57 15.56 115.99 16.64Q115.41 17.73 115.41 19.23L115.41 19.23Q115.41 20.77 115.99 21.86Q116.57 22.95 117.56 23.50Q118.56 24.06 119.72 24.06Z"/></g>
        
      </svg>
    